inDegrees=no
num_controls=7
num_derivatives=13
num_iterations=142
num_multipliers=7
num_parameters=0
num_slacks=7
num_states=26
objective=0.544623
objective_accelerations=0.058372
objective_balance=0.003264
objective_effort=0.045052
objective_height=0.430309
objective_ligament=0.007626
solver_duration=1445.874887
status=Solve_Succeeded
success=true
DataType=double
version=3
OpenSimVersion=4.5
endheader
time	/jointset/ground_pelvis/pelvis_tilt/value	/jointset/ground_pelvis/pelvis_tx/value	/jointset/ground_pelvis/pelvis_ty/value	/jointset/hip_r/hip_flexion_r/value	/jointset/hip_r/hip_adduction_r/value	/jointset/hip_r/hip_rotation_r/value	/jointset/back/lumbar_extension/value	/jointset/patellofemoral_r/patellar_flexion_r/value	/jointset/knee_r/knee_flexion_r/value	/jointset/knee_r/knee_adduction_r/value	/jointset/knee_r/knee_rotation_r/value	/jointset/ankle_r/ankle_angle_r/value	/jointset/subtalar_r/subtalar_angle_r/value	/jointset/ground_pelvis/pelvis_tilt/speed	/jointset/ground_pelvis/pelvis_tx/speed	/jointset/ground_pelvis/pelvis_ty/speed	/jointset/hip_r/hip_flexion_r/speed	/jointset/hip_r/hip_adduction_r/speed	/jointset/hip_r/hip_rotation_r/speed	/jointset/back/lumbar_extension/speed	/jointset/patellofemoral_r/patellar_flexion_r/speed	/jointset/knee_r/knee_flexion_r/speed	/jointset/knee_r/knee_adduction_r/speed	/jointset/knee_r/knee_rotation_r/speed	/jointset/ankle_r/ankle_angle_r/speed	/jointset/subtalar_r/subtalar_angle_r/speed	/forceset/tau_hip_flexion_r	/forceset/tau_hip_adduction_r	/forceset/tau_hip_rotation_r	/forceset/tau_knee_flexion_r	/forceset/tau_ankle_angle_r	/forceset/tau_subtalar_angle_r	/forceset/tau_lumbar_extension	lambda_cid13_p0	lambda_cid14_p0	lambda_cid14_p1	lambda_cid14_p2	lambda_cid14_p3	lambda_cid14_p4	lambda_cid14_p5	/jointset/ground_pelvis/pelvis_tilt/accel	/jointset/ground_pelvis/pelvis_tx/accel	/jointset/ground_pelvis/pelvis_ty/accel	/jointset/hip_r/hip_flexion_r/accel	/jointset/hip_r/hip_adduction_r/accel	/jointset/hip_r/hip_rotation_r/accel	/jointset/back/lumbar_extension/accel	/jointset/patellofemoral_r/patellar_flexion_r/accel	/jointset/knee_r/knee_flexion_r/accel	/jointset/knee_r/knee_adduction_r/accel	/jointset/knee_r/knee_rotation_r/accel	/jointset/ankle_r/ankle_angle_r/accel	/jointset/subtalar_r/subtalar_angle_r/accel	gamma_cid13_p0	gamma_cid14_p0	gamma_cid14_p1	gamma_cid14_p2	gamma_cid14_p3	gamma_cid14_p4	gamma_cid14_p5
1.5	-0.1909913936154886	0.02135571047309785	0.8284250970092585	0.9054531180414612	-0.2208869989842358	-0.1314119214765408	-0.3019046171850224	0.801104976681613	0.8011049766815083	-0.005403008821224646	0.1745168414676857	0.2660593435871142	0.06976538603835135	0.4429614449644918	0.192804491843525	0.5126219138569039	-2.093450811117204	0.006046226689402107	-0.2468199374539248	0.7025910003070591	-2.169493811186189	-2.169493811185367	0.4139349903588808	-9.180478099173126e-05	-0.6270266318262767	-0.1812176843457927	-0.1200946985715308	-0.01972008169588011	0.01174367497818277	-0.3448891736277837	0.08613523868840366	-0.006539752958587446	0.1596215169204514	-25.22585905642711	-12.89650742618678	-2.17393221112764	-2.533778611187993	-2.366676322744825	-647.2366738933601	59.49133408039202	0.3504758467901838	0.5526724958746621	-0.6695471221005339	-1.127366886294618	-0.1404366191187783	-0.7235724071616748	1.624374938351066	-1.243625091263898	-1.243625091263955	0.4422234432636478	-0.07584036641743876	-0.6415756621222273	-0.2077062564780679	1.280918671028772e-07	-1.781526759820314e-07	-2.974935358052995e-06	-1.386320673680808e-06	4.479180675598775e-07	-3.296877823092791e-08	-1.29518248801465e-06
1.51	-0.1865448354916663	0.02331103034330575	0.8335166700522766	0.8844651663809102	-0.2208331659150271	-0.1339229299599292	-0.2947986961874083	0.7793508113189025	0.7793508113188471	-0.001246677680310014	0.1745167834331808	0.2597580025575141	0.06794384791398862	0.4462872634048645	0.198219578066126	0.5055777775812512	-2.103838014884344	0.004721432531219063	-0.2553273676619815	0.7184737792996361	-2.181012388033592	-2.181012388033845	0.417359368978954	5.754850915403183e-05	-0.6331504124594378	-0.1830563505329979	-0.1130871461333847	-0.02122445119630274	0.0113921629097704	-0.3400619148748563	0.08807729390916814	-0.007566311718113304	0.1531814674094235	-26.58588902810112	-12.04092312188214	-2.334318340888637	-2.663146392889594	-2.435930843100885	-642.0165204049703	59.20227942524885	0.3141580420269265	0.5300963621502389	-0.7391478517331447	-0.9492251037772096	-0.1292992738144609	-0.9063253142809961	1.552316392284402	-1.056957294738706	-1.056957294899956	0.2960109620228266	0.0561517517236519	-0.5839761061937513	-0.1680227492414085	9.07794884556026e-08	-3.837464455204587e-07	-3.76422582483025e-06	-3.03417074565191e-06	6.647704944340204e-07	-2.204182312928369e-07	-1.269027540144702e-06
1.52	-0.1820669145435679	0.02531933501107912	0.838534341538251	0.8633823770863176	-0.2207927404793291	-0.1365174121427291	-0.2875375299973539	0.7574912635250661	0.7574912635250494	0.002944590424934281	0.1745173846465731	0.2533981843531262	0.0661047079378739	0.4492340098198843	0.2034014513566191	0.4978416024481856	-2.112418337925626	0.003364699987179286	-0.263514677336171	0.7336400387951507	-2.190570297411405	-2.190570297412732	0.4209223832247732	4.004479902231026e-05	-0.6387220667838271	-0.1847380546961896	-0.1060795936952315	-0.02272882069672344	0.01104065084134921	-0.3352346561219278	0.09001934912993306	-0.00859287047763623	0.1467414178984014	-27.9261687474947	-11.19214474075418	-2.49851625616682	-2.788909183809606	-2.484764581827242	-636.9030659423158	58.86984048672555	0.2746614417196152	0.5060299094530707	-0.8079548935831111	-0.7659907411233311	-0.1468242962901284	-0.659548300388226	1.481071038938592	-0.8514915973459039	-0.8514915973458415	0.4699505684128546	-0.1092117664729271	-0.5311504003678931	-0.176313851675379	7.537295941104645e-08	-4.934654219313921e-07	-4.228793594607587e-06	-3.949631130317851e-06	7.828425286300656e-07	-3.253501387618811e-07	-1.202732457725259e-06
1.53	-0.1775615250119374	0.02737830432634139	0.8434713228165253	0.842222789267276	-0.2207657879501479	-0.1391931995204042	-0.2801285718932369	0.7355458845440213	0.7355458845440097	0.007171288187587568	0.174517667099387	0.2469855811429265	0.06424990946803959	0.4517639200602455	0.2083533870514434	0.4894505836980269	-2.119188438240402	0.002038727221748371	-0.2716404794705108	0.7480115141754557	-2.198177521961279	-2.198177521961724	0.4243910209732522	2.431676822365226e-05	-0.643692113905156	-0.1861697790192686	-0.09843510342199921	-0.02486346219803788	0.01046924112366897	-0.3316734324904825	0.09360472845343006	-0.009440771979679297	0.1398753975652088	-29.24471357931193	-9.82279049400149	-2.482028995947921	-2.957127098973387	-2.971666237029561	-632.1574463843533	58.99788261673072	0.2301191017902217	0.4840822994780527	-0.8703561611767772	-0.5859573845351209	-0.1245937024067311	-0.8889320287437568	1.394175609647166	-0.6661588491630229	-0.6661588490306203	0.2805641804918095	0.05261992785747924	-0.463821819410329	-0.1200083201102716	8.324139556937839e-08	-5.013174306443643e-07	-4.348343498822517e-06	-4.086927472222068e-06	7.95960395605633e-07	-3.426071540385074e-07	-1.09378848234698e-06
1.54	-0.1730332437205853	0.02948565437854806	0.8483212577482091	0.8210048129035107	-0.2207519171357686	-0.14195021209118	-0.2725801010709027	0.7135342691244081	0.7135342691244089	0.01143172108821084	0.1745178669217365	0.2405264994712346	0.06238211243547727	0.4538123617644435	0.2130775987455006	0.4804323331300979	-2.124096046870395	0.0007483570268302965	-0.279759715956326	0.7615425824385907	-2.203817585125345	-2.203817585124907	0.4276694108187853	2.35187070574665e-05	-0.648017759082283	-0.1873377672417915	-0.09079061314875886	-0.02699810369935	0.009897831405963786	-0.3281122088590357	0.09719010777692777	-0.01028867348171863	0.1330093772320228	-30.54052122376512	-8.458773571104938	-2.471805473408312	-3.118254450156777	-3.434849006340058	-627.4867171420849	59.06663849923157	0.1783677344869653	0.4604851092996479	-0.9334012571371431	-0.3934924041668506	-0.1397037821875609	-0.6582351706832822	1.312989615504575	-0.4580593201842064	-0.4580593201841348	0.431900987823661	-0.1062257725464313	-0.4022700115275426	-0.1235666315641625	8.336288101175556e-08	-5.054500896783287e-07	-4.304689040158053e-06	-4.159122599774878e-06	7.924925105280665e-07	-3.715178829390181e-07	-9.172962163553717e-07
1.55	-0.1684869550121089	0.03163902208519287	0.8530779486584388	0.799747335593554	-0.2207505232683783	-0.1447881323711854	-0.2649004352709151	0.6914763536154085	0.6914763536154063	0.01572386143531376	0.1745179452474742	0.2340275230816579	0.06050426898679971	0.4553725005722825	0.2175486413551746	0.4708125812513623	-2.127085517826833	-0.0004519510970146818	-0.2878331758616703	0.7742414552465692	-2.207423807108384	-2.207423807108477	0.4307146108783188	1.388822340310014e-05	-0.6516649120285698	-0.1881746989701045	-0.08345700106366319	-0.02866367954606143	0.00907427377256355	-0.3242190638490132	0.1001350705733904	-0.01111486539873351	0.1263916473200593	-31.81277315022918	-7.323895141143903	-2.495195733499517	-3.270690019046747	-3.71521090198435	-623.1923209415155	59.02783940681699	0.1338676259160679	0.4334701269573532	-0.990339778256456	-0.2046440563871443	-0.1085825382023965	-0.8834588200142454	1.225967766573837	-0.2606611359253662	-0.2606611360050597	0.2334240761375269	0.05414699263176314	-0.3289178698849739	-0.0564341793408091	7.455853193357663e-08	-5.052974110386538e-07	-4.072994772089079e-06	-4.15630980644455e-06	7.699149546066728e-07	-4.138557166670471e-07	-6.6297657204841e-07
1.56	-0.1639272587811587	0.03383571147596562	0.8577356265248782	0.7784693696510319	-0.2207608101243707	-0.1477070987341547	-0.2570982544122218	0.6693926243868678	0.6693926243868554	0.02004497269523449	0.174518423004152	0.2274954791758771	0.05861952067366381	0.4564938662594726	0.2217419355710869	0.4606297243720507	-2.128193773383467	-0.001587787649637397	-0.2959689325491836	0.7860455941797241	-2.208980329033887	-2.208980329034512	0.4334635933826247	0.0001034048960167725	-0.6546312623230857	-0.1887187401334548	-0.07612338897855843	-0.03032925539277065	0.008250716139133321	-0.3203259188389887	0.1030800333698537	-0.01194105731574493	0.1197739174081032	-33.0473710248335	-6.197745777032224	-2.526194654542765	-3.414963080577223	-3.96244707673028	-619.0260260617589	58.92477970890777	0.09061311035720884	0.4049354305473022	-1.04602225725236	-0.01724932420643484	-0.1268094679431073	-0.670694527117063	1.134042840539874	-0.04811930867692734	-0.04811930867693873	0.3726574767781674	-0.08639634129282951	-0.2661094811733442	-0.06498851857163156	8.180726249379662e-08	-4.307835434099625e-07	-3.647026056703001e-06	-3.552264998987128e-06	6.773916517425628e-07	-3.601907686538957e-07	-5.58420463370617e-07
1.57	-0.1593586801433238	0.03607283797295571	0.8622887695414004	0.7571898396886068	-0.2207826124659001	-0.1507048007197959	-0.2491825125440865	0.6473035986481872	0.6473035986481823	0.02439485474702661	0.1745186390072525	0.2209369328594639	0.05673001365023936	0.4571363620285717	0.2256249113892084	0.4499172503110209	-2.127374159039991	-0.002730839107409013	-0.3036564660283599	0.7969479980416874	-2.208482996180503	-2.208482996180699	0.436374535135469	1.546912701230676e-06	-0.656964885045952	-0.1890965509573603	-0.0689251336850359	-0.0316792843021716	0.007224128155292847	-0.3163062590852604	0.1056178107979208	-0.01272361244129784	0.1132782777522892	-34.23357254141118	-5.23058648236967	-2.566127098801051	-3.557761237746039	-4.039296012432318	-615.3074290749431	58.80343389636693	0.03823300662340001	0.3712895569020994	-1.096121580014268	0.1822597548071742	-0.1022597881572526	-0.8305256531185351	1.045121948159816	0.1499079907518306	0.1499079908160164	0.2290995820781869	0.03692054898116531	-0.199941411528905	-0.01183582930328449	1.091223426020151e-07	-2.633181895450016e-07	-2.978214282170545e-06	-2.196680173870847e-06	4.974361652000585e-07	-1.865223434642703e-07	-6.410687742292826e-07
1.58	-0.1547862435085121	0.03834705640801852	0.8667323354974151	0.7359286444578524	-0.2208146866827009	-0.1537819266191884	-0.2411623900795045	0.6252297959197211	0.6252297959197295	0.02876960362785469	0.174519636645685	0.2143584597670849	0.05483919682557518	0.4572654656551597	0.2291603231856267	0.4387143122705618	-2.124526827049214	-0.003642162703702229	-0.3118537152995617	0.8069217134690629	-2.205935726990889	-2.205935726990658	0.4384369591899382	0.00025973196266853	-0.6586166175162431	-0.1889807003813965	-0.06172687839150549	-0.03302931321157326	0.006197540171459377	-0.3122865993315301	0.1081555882259881	-0.01350616756685086	0.1067826380964819	-35.36420406421212	-4.274465166973727	-2.608003213713991	-3.700235314215166	-4.094436983757223	-611.758470724136	58.69263530929859	-0.01206531814503157	0.3354226262066611	-1.144115053138216	0.3882942052534523	-0.08046389564743034	-0.77263768552217	0.9483051536223277	0.3618679585690006	0.3618679585688929	0.2029539371031587	-0.01438773463627461	-0.1297314306582616	0.03374376140221495	1.4951292650306e-07	-3.504194061303525e-08	-2.189194335388164e-06	-3.611002732835202e-07	2.634436210330253e-07	8.701559626085439e-08	-9.333715948173347e-07
1.59	-0.1502148881372796	0.04065509046574081	0.8710616217810214	0.7147050896674874	-0.2208564826982833	-0.1569366308453483	-0.2330473841175866	0.6031914747925121	0.6031914747924969	0.03316794724062158	0.1745211173177426	0.2077665717962533	0.05294952089890748	0.4569102975376729	0.2324060674321397	0.4270765890483929	-2.119868069816517	-0.004692173589084282	-0.3191213977628038	0.8159317173877151	-2.201388032085305	-2.201388032085192	0.4411380382574741	6.776689548624855e-05	-0.6596214715103241	-0.1888846109469264	-0.05388308548759359	-0.03554699650756086	0.005196625211485115	-0.3101174541722068	0.1133497500295737	-0.01432747684892309	0.09997587841666161	-36.43209337722546	-2.492490345114553	-2.523721232766982	-3.860980651016189	-4.912659876115868	-608.8192246128126	59.06124699176318	-0.06150461019528561	0.3130417768376594	-1.183406290499915	0.5521265830647589	-0.1130211977581531	-0.7084542262878455	0.855183781945575	0.5522417522611157	0.5522417522435369	0.2897511707072722	-0.01624311456471792	-0.06493591178296229	0.00834245922874133	2.076488369800828e-07	2.757633801955767e-07	-1.237034726266609e-06	2.125901515443047e-06	-4.388492991014996e-08	4.960907342841491e-07	-1.510205535752396e-06
